<svg height="150" width="400" style="width: 400px; height: 150px; position: absolute; top: 50%; left: 50%; transform: translate(-50%, -50%) scale(1); z-index: 0; cursor: pointer; overflow: visible;">
  <g id="SvgjsG1008" featurekey="nameLeftFeature-0" transform="matrix(0.7521768387457426,0,0,0.7521768387457426,73.70775988114751,100.43524203345271)" fill="#ffffff"><path d="M16.152 40.39063 c-8.3008 0 -14.434 -5.6445 -14.434 -14.512 s6.1328 -14.492 14.434 -14.492 c6.2891 0 11.328 3.2227 13.34 8.5742 l-5.4688 1.9922 c-1.25 -3.2813 -4.2383 -5.1758 -7.8711 -5.1758 c-4.8633 0 -8.5938 3.3984 -8.5938 9.1016 s3.7305 9.1211 8.5938 9.1211 c3.6328 0 6.6211 -1.9141 7.8711 -5.1953 l5.4688 1.9922 c-2.0117 5.3516 -7.0508 8.5938 -13.34 8.5938 z"></path></g><g id="SvgjsG1009" featurekey="inlineSymbolFeature-0" transform="matrix(0.42401893072318475,0,0,0.42401893072318475,90.98560013892872,98.25869309746881)" fill="#ffffff"><path xmlns="http://www.w3.org/2000/svg" d="M75.066,40.396c-0.203-0.611-0.418-1.215-0.643-1.814c-0.012-0.039-0.018-0.076-0.031-0.115  c-0.184-0.477-0.125-1.119-0.057-1.863c0.176-1.928,0.414-4.57-3.008-7.371c-2.154-1.766-4.775-2.199-7.549-2.658  c-1.578-0.262-3.209-0.529-4.869-1.059c-0.959-0.305-1.904-0.23-2.734,0.221c-0.26,0.139-0.49,0.318-0.705,0.512  c-5.755-1.416-11.944-0.969-17.177,1.313c-6.922,3.02-12.158,9.434-14.009,17.162c-1.035,4.363-0.861,9.107,0.501,13.719  c0.879,2.98,3.029,7.205,6.673,10.848c4.117,4.117,10.138,7.492,18.381,7.492c7.006-0.002,13.661-2.639,18.739-7.43  C76.049,62.299,78.596,50.934,75.066,40.396z M54.035,33.129c0.525,1,1.336,1.861,2.137,2.707c0.318,0.334,0.652,0.686,0.986,1.066  c0.664,0.748,0.885,1.223,1.164,1.82c0.313,0.672,0.668,1.43,1.555,2.514c0.105,0.127,0.213,0.248,0.326,0.359  c0.527,0.527,1.141,0.883,1.773,1.135c0.621,1.107,1.092,2.234,1.42,3.471c0.674,2.529,0.615,5.365-0.164,7.986  c-0.65,2.176-1.758,4.113-3.35,5.877c-0.33,0.334-1.768,1.682-2.611,2.215c-2.279,1.439-4.619,2.258-6.953,2.436  c-4.455,0.342-8.409-1.08-11.438-4.109l-0.009-0.01c-1.177-1.176-2.874-3.303-3.791-5.436c-1.115-2.594-1.501-5.625-1.087-8.529  c0.479-3.16,1.802-5.953,4.048-8.533c0.521-0.598,2.414-2.262,3.82-3.074c1.763-1.018,3.862-1.711,6.075-2.01  C49.855,32.754,51.959,32.818,54.035,33.129z M62.779,69.25l0.207-1.291c0.133-0.818-0.426-1.588-1.244-1.719  c-0.818-0.129-1.586,0.428-1.719,1.246l-0.375,2.344c-0.076,0.482,0.088,0.963,0.422,1.297c0.094,0.092,0.203,0.172,0.322,0.238  c-1.705,0.82-3.504,1.439-5.361,1.842l-0.461-0.461l0.639-1.17c0.396-0.729,0.127-1.643-0.6-2.033  c-0.727-0.398-1.639-0.131-2.035,0.598L51.4,72.297c-0.246,0.447-0.236,0.977-0.008,1.412c-0.516,0.031-1.032,0.072-1.554,0.074  c-1.459,0-2.832-0.127-4.137-0.344l-0.134-0.391l0.728-0.438c0.709-0.426,0.94-1.348,0.516-2.059  c-0.429-0.713-1.352-0.939-2.061-0.514l-1.771,1.064c-0.521,0.314-0.772,0.902-0.694,1.488c-2.174-0.729-4.093-1.742-5.765-2.928  l0.015-0.072l1.054-0.223c0.813-0.174,1.33-0.969,1.157-1.779c-0.17-0.813-0.967-1.328-1.778-1.156l-2.009,0.424  c-0.417,0.09-0.767,0.354-0.978,0.713c-1.621-1.541-2.929-3.217-3.943-4.846l0.628-0.045c0.826-0.057,1.45-0.773,1.395-1.602  c-0.058-0.824-0.774-1.447-1.603-1.391l-1.966,0.137c-0.354-0.799-0.631-1.551-0.83-2.23c-0.285-0.965-0.507-1.947-0.673-2.934  l0.307,0.076c0.807,0.189,1.615-0.309,1.807-1.113c0.191-0.807-0.309-1.611-1.111-1.809l-1.338-0.316  c-0.062-1.438,0.015-2.859,0.211-4.232l0.203,0.137c0.686,0.465,1.618,0.285,2.083-0.402c0.464-0.686,0.286-1.617-0.401-2.082  l-1.191-0.807c1.879-6.225,6.265-11.326,11.935-13.799c4.359-1.902,9.477-2.344,14.333-1.346c-0.059,0.172-0.109,0.34-0.154,0.5  c-0.057,0.203-0.098,0.4-0.129,0.592c-2.057-0.244-4.112-0.275-6.005-0.018c-2.633,0.355-5.046,1.158-7.172,2.383  c-1.823,1.055-3.923,2.943-4.586,3.705c-2.594,2.98-4.192,6.365-4.752,10.068c-0.493,3.453-0.031,7.057,1.299,10.146  c1.084,2.521,2.995,4.943,4.425,6.373c0.003,0.002,0.007,0.008,0.011,0.01c3.615,3.615,8.512,5.383,13.789,4.979  c2.826-0.215,5.625-1.186,8.322-2.889c1.271-0.803,3.082-2.57,3.201-2.701c1.932-2.143,3.252-4.455,4.035-7.072  c0.936-3.143,1.004-6.559,0.188-9.613c-0.213-0.797-0.479-1.561-0.787-2.303c0.234-0.037,0.447-0.08,0.619-0.133  c0.793-0.242,1.238-1.08,0.994-1.871c-0.242-0.791-1.08-1.238-1.873-0.998c-0.408,0.127-2.225,0.256-3.049-0.789  c-0.65-0.793-0.889-1.297-1.158-1.881c-0.32-0.688-0.684-1.465-1.635-2.539c-0.357-0.408-0.715-0.785-1.057-1.145  c-1.613-1.703-2.107-2.352-1.787-3.502c0.32-1.158,0.762-1.744,1.039-1.895c0.055-0.031,0.15-0.082,0.396-0.002  c1.869,0.596,3.688,0.896,5.291,1.162c2.473,0.408,4.604,0.76,6.139,2.018c2.186,1.799,2.072,3.113,1.92,4.781  c-0.088,0.973-0.188,2.078,0.24,3.201c0,0,0.189,0.484,0.635,1.814c0.41,1.221,0.725,2.457,0.953,3.693l-0.701,0.582l-0.998-0.998  c-0.586-0.584-1.535-0.584-2.119,0c-0.586,0.586-0.588,1.537,0,2.123l1.961,1.961c0.547,0.549,1.422,0.588,2.018,0.096l0.262-0.217  c0.092,1.791,0,3.566-0.27,5.295l-0.848,0.371l-0.707-1.199c-0.416-0.713-1.338-0.951-2.053-0.531  c-0.713,0.42-0.951,1.338-0.531,2.053l1.381,2.346c0.066,0.113,0.145,0.213,0.232,0.301c0.428,0.428,1.088,0.566,1.662,0.313h0.004  c-0.549,1.736-1.291,3.395-2.215,4.939l-0.879-0.002l-0.313-1.477c-0.17-0.811-0.967-1.328-1.777-1.156s-1.33,0.967-1.158,1.777  l0.563,2.664c0.063,0.293,0.207,0.551,0.406,0.75c0.264,0.266,0.627,0.42,1.02,0.432c-0.504,0.592-1.027,1.168-1.598,1.705  c-0.961,0.906-1.998,1.707-3.076,2.438L62.779,69.25z M65.424,31.598c-0.396,0-0.779,0.156-1.063,0.439  c-0.275,0.275-0.438,0.664-0.438,1.059c0,0.398,0.162,0.787,0.438,1.063s0.664,0.439,1.063,0.438c0.395,0,0.783-0.162,1.061-0.438  c0.281-0.283,0.445-0.672,0.438-1.063C66.922,32.305,66.215,31.598,65.424,31.598z"></path></g><g id="SvgjsG1010" featurekey="nameRightFeature-0" transform="matrix(0.7521741676814867,0,0,0.7521741676814867,126.95748612728687,100.43527244786816)" fill="#ffffff"><path d="M13.027 40.39063 c-6.0547 0 -10.781 -2.9102 -11.641 -8.2031 l6.0547 -1.3867 c0.39063 3.1641 2.7148 4.8047 5.8203 4.8047 c2.3828 0 4.2773 -1.0547 4.2578 -3.4375 c-0.019531 -2.6563 -3.1445 -3.4961 -6.582 -4.5508 c-4.1406 -1.2891 -8.5742 -2.8125 -8.5742 -8.0078 c0 -5.2539 4.2969 -8.2227 9.9609 -8.2227 c4.9609 0 9.9609 2.0117 11.094 7.4219 l-5.6641 1.4063 c-0.52734 -2.8125 -2.4219 -4.043 -5.0781 -4.043 c-2.3633 0 -4.375 0.97656 -4.375 3.3008 c0 2.168 2.7734 2.8906 5.9766 3.8477 c4.2578 1.2891 9.2969 2.9297 9.2969 8.5547 c0 5.9961 -5.0195 8.5156 -10.547 8.5156 z M58.4422890625 40 l-5.8398 0 l-1.8555 -21.27 l-7.1484 21.27 l-3.7891 0 l-7.1484 -21.27 l-1.875 21.27 l-5.8594 0 l2.3633 -28.223 l8.3594 0 l6.0156 17.715 l6.0938 -17.715 l8.3594 0 z M74.189109375 40.39063 c-8.3008 0 -14.434 -5.6641 -14.434 -14.512 c0 -8.8672 6.1328 -14.492 14.434 -14.492 c8.2813 0 14.414 5.625 14.414 14.492 c0 8.8477 -6.1328 14.512 -14.414 14.512 z M74.189109375 35.0195 c4.8633 0 8.5938 -3.418 8.5938 -9.1406 c0 -5.7031 -3.7305 -9.1016 -8.5938 -9.1016 s-8.5938 3.3984 -8.5938 9.1016 c0 5.7227 3.7305 9.1406 8.5938 9.1406 z M103.6080546875 40.39063 c-8.3008 0 -14.434 -5.6445 -14.434 -14.512 s6.1328 -14.492 14.434 -14.492 c6.2891 0 11.328 3.2227 13.34 8.5742 l-5.4688 1.9922 c-1.25 -3.2813 -4.2383 -5.1758 -7.8711 -5.1758 c-4.8633 0 -8.5938 3.3984 -8.5938 9.1016 s3.7305 9.1211 8.5938 9.1211 c3.6328 0 6.6211 -1.9141 7.8711 -5.1953 l5.4688 1.9922 c-2.0117 5.3516 -7.0508 8.5938 -13.34 8.5938 z M131.36684375 40.39063 c-8.3008 0 -14.434 -5.6641 -14.434 -14.512 c0 -8.8672 6.1328 -14.492 14.434 -14.492 c8.2813 0 14.414 5.625 14.414 14.492 c0 8.8477 -6.1328 14.512 -14.414 14.512 z M131.36684375 35.0195 c4.8633 0 8.5938 -3.418 8.5938 -9.1406 c0 -5.7031 -3.7305 -9.1016 -8.5938 -9.1016 s-8.5938 3.3984 -8.5938 9.1016 c0 5.7227 3.7305 9.1406 8.5938 9.1406 z M167.5637890625 11.777000000000001 l5.8398 0 l0 28.223 l-6.7773 0 l-12.5 -20.176 l0 20.176 l-5.8398 0 l0 -28.223 l6.6992 0 l12.578 20.059 l0 -20.059 z M195.771921875 11.777000000000001 l6.2305 0 l-10.43 28.223 l-6.4453 0 l-10.371 -28.223 l6.2109 0 l7.4023 21.387 z M219.7221484375 16.934 l-10.469 0 l0 6.4063 l9.2773 0 l0 5.0977 l-9.2773 0 l0 6.3867 l10.469 0 l0 5.1758 l-16.367 0 l0 -28.223 l16.367 0 l0 5.1563 z M237.77375 40 l-7.3438 -12.422 l-1.6992 0 l0 12.422 l-5.8594 0 l0 -28.223 l10.234 0 c6.3867 0 9.082 3.7695 9.082 8.4375 c0 3.7891 -2.1484 6.25 -5.9766 7.0703 l8.4961 12.715 l-6.9336 0 z M228.73045 16.641 l0 6.7383 l3.457 0 c3.125 0 4.3945 -1.3281 4.3945 -3.3594 c0 -2.0117 -1.2695 -3.3789 -4.3945 -3.3789 l-3.457 0 z M262.4858203125 11.777000000000001 l0 5.1563 l-6.6992 0 l0 23.066 l-5.8008 0 l0 -23.066 l-6.7383 0 l0 -5.1563 l19.238 0 z M280.400859375 16.934 l-10.469 0 l0 6.4063 l9.2773 0 l0 5.0977 l-9.2773 0 l0 6.3867 l10.469 0 l0 5.1758 l-16.367 0 l0 -28.223 l16.367 0 l0 5.1563 z M298.4524609375 40 l-7.3438 -12.422 l-1.6992 0 l0 12.422 l-5.8594 0 l0 -28.223 l10.234 0 c6.3867 0 9.082 3.7695 9.082 8.4375 c0 3.7891 -2.1484 6.25 -5.9766 7.0703 l8.4961 12.715 l-6.9336 0 z M289.4091609375 16.641 l0 6.7383 l3.457 0 c3.125 0 4.3945 -1.3281 4.3945 -3.3594 c0 -2.0117 -1.2695 -3.3789 -4.3945 -3.3789 l-3.457 0 z"></path></g></svg>