<svg viewBox="0 0 356.661 239.119" class="css-8aabad"><path d="M85.857 130.816c-6.244 0-10.857-4.246-10.857-10.915S79.613 109 85.857 109c4.73 0 8.52 2.424 10.034 6.45l-4.114 1.498c-.94-2.468-3.187-3.893-5.92-3.893-3.658 0-6.464 2.556-6.464 6.846s2.806 6.86 6.464 6.86c2.733 0 4.98-1.44 5.92-3.907l4.114 1.498c-1.513 4.025-5.303 6.464-10.034 6.464z" fill="#fff"/><path xmlns="http://www.w3.org/2000/svg" d="M122.815 115.387c-.086-.259-.177-.515-.273-.769-.005-.016-.007-.032-.013-.049-.078-.202-.053-.474-.024-.79.075-.817.176-1.937-1.275-3.125-.914-.749-2.025-.932-3.201-1.127-.67-.111-1.361-.224-2.065-.449a1.452 1.452 0 0 0-1.16.094c-.11.059-.207.135-.298.217-2.44-.6-5.065-.411-7.283.557-2.936 1.28-5.156 4-5.94 7.277-.44 1.85-.366 3.861.212 5.817.373 1.263 1.284 3.055 2.83 4.6 1.745 1.745 4.298 3.176 7.793 3.176 2.971 0 5.793-1.119 7.946-3.15 3.168-2.991 4.248-7.81 2.751-12.279zm-8.918-3.081c.223.424.567.79.907 1.148.134.141.276.29.418.452.281.317.375.518.493.772.133.284.283.606.66 1.066.044.053.09.105.138.152.223.223.484.374.752.481.263.47.463.947.602 1.472.285 1.072.26 2.275-.07 3.386a6.407 6.407 0 0 1-1.42 2.492c-.14.142-.75.713-1.107.94-.967.61-1.959.957-2.949 1.032-1.889.145-3.565-.458-4.85-1.742l-.003-.004c-.5-.5-1.219-1.401-1.608-2.305-.473-1.1-.636-2.386-.46-3.617.202-1.34.763-2.524 1.716-3.618.22-.254 1.023-.96 1.62-1.303.747-.432 1.637-.726 2.575-.853.814-.11 1.706-.083 2.586.049zm3.708 15.316.088-.547a.636.636 0 1 0-1.257-.201l-.159.994a.638.638 0 0 0 .18.55c.04.039.085.073.136.1a10.27 10.27 0 0 1-2.273.782l-.196-.196.271-.496a.635.635 0 0 0-.254-.862.635.635 0 0 0-.863.254l-.498.914a.632.632 0 0 0-.003.599c-.219.013-.438.03-.66.031-.618 0-1.2-.054-1.753-.146l-.057-.166.309-.185a.637.637 0 0 0-.655-1.091l-.751.45a.632.632 0 0 0-.295.632 9.352 9.352 0 0 1-2.444-1.242l.006-.03.447-.095a.636.636 0 1 0-.263-1.244l-.852.18a.638.638 0 0 0-.415.302 10.507 10.507 0 0 1-1.672-2.055l.267-.02a.637.637 0 0 0-.088-1.27l-.834.06a7.726 7.726 0 0 1-.352-.946c-.121-.409-.215-.825-.286-1.244l.13.033a.638.638 0 0 0 .767-.472.64.64 0 0 0-.471-.767l-.568-.134a9.746 9.746 0 0 1 .09-1.795l.086.058a.636.636 0 1 0 .713-1.053l-.505-.342c.797-2.64 2.657-4.803 5.06-5.851 1.85-.807 4.02-.994 6.078-.571a3.927 3.927 0 0 0-.065.212 2.25 2.25 0 0 0-.055.251c-.872-.103-1.743-.117-2.546-.008a8.267 8.267 0 0 0-3.041 1.01c-.773.448-1.663 1.249-1.945 1.572-1.1 1.263-1.777 2.699-2.015 4.269-.209 1.464-.013 2.992.551 4.302.46 1.069 1.27 2.096 1.877 2.702l.004.004c1.533 1.533 3.61 2.283 5.847 2.112 1.198-.092 2.385-.503 3.529-1.225.539-.34 1.307-1.09 1.357-1.146.82-.908 1.379-1.889 1.71-2.998.398-1.333.427-2.781.08-4.076a7.783 7.783 0 0 0-.333-.977c.1-.016.19-.034.262-.056a.634.634 0 0 0 .422-.794.638.638 0 0 0-.794-.423c-.173.054-.944.109-1.293-.334a3.174 3.174 0 0 1-.491-.798 3.926 3.926 0 0 0-.693-1.077 15.93 15.93 0 0 0-.449-.485c-.684-.722-.893-.997-.757-1.485.135-.491.323-.74.44-.803.024-.014.064-.035.168-.001.793.252 1.564.38 2.244.492 1.048.173 1.952.323 2.603.856.927.763.878 1.32.814 2.027-.038.413-.08.881.102 1.358 0 0 .08.205.269.769.174.517.307 1.042.404 1.566l-.297.246-.424-.423a.636.636 0 0 0-.898.9l.831.832c.232.233.603.25.856.04l.111-.091c.04.76 0 1.512-.114 2.245l-.36.157-.3-.508a.636.636 0 1 0-1.095.645l.585.995a.636.636 0 0 0 .803.26h.002a9.876 9.876 0 0 1-.94 2.094h-.372l-.133-.627a.636.636 0 0 0-1.244.263l.239 1.13a.633.633 0 0 0 .605.501 8.93 8.93 0 0 1-.678.723c-.408.385-.847.724-1.305 1.034l-.282-.15zm1.122-15.965a.638.638 0 0 0-.637.635c0 .169.069.334.186.45s.281.187.45.186a.632.632 0 0 0 .636-.636c0-.335-.3-.635-.635-.635z" fill="#fff"/><path d="M136.756 130.816c-4.554 0-8.11-2.189-8.756-6.17l4.554-1.043c.294 2.38 2.042 3.614 4.378 3.614 1.792 0 3.217-.793 3.203-2.586-.015-1.998-2.366-2.63-4.951-3.423-3.115-.97-6.45-2.115-6.45-6.023 0-3.952 3.233-6.185 7.493-6.185 3.731 0 7.492 1.513 8.345 5.583l-4.26 1.057c-.398-2.115-1.823-3.04-3.82-3.04-1.778 0-3.291.734-3.291 2.482 0 1.63 2.086 2.174 4.495 2.894 3.203.97 6.993 2.204 6.993 6.435 0 4.51-3.775 6.405-7.933 6.405zm34.16-.294h-4.392l-1.396-15.999-5.377 16h-2.85l-5.377-16-1.41 16h-4.407l1.777-21.23h6.288l4.525 13.325 4.583-13.324h6.288zm11.845.294c-6.244 0-10.857-4.26-10.857-10.915 0-6.67 4.613-10.901 10.857-10.901 6.229 0 10.841 4.231 10.841 10.9 0 6.656-4.612 10.916-10.841 10.916zm0-4.04c3.658 0 6.464-2.57 6.464-6.875 0-4.29-2.806-6.846-6.464-6.846s-6.464 2.556-6.464 6.846c0 4.304 2.806 6.875 6.464 6.875zm22.128 4.04c-6.244 0-10.857-4.246-10.857-10.915S198.645 109 204.889 109c4.73 0 8.52 2.424 10.034 6.45l-4.114 1.498c-.94-2.468-3.188-3.893-5.92-3.893-3.658 0-6.464 2.556-6.464 6.846s2.806 6.86 6.464 6.86c2.732 0 4.98-1.44 5.92-3.907l4.114 1.498c-1.513 4.025-5.304 6.464-10.034 6.464zm20.88 0c-6.244 0-10.858-4.26-10.858-10.915 0-6.67 4.613-10.901 10.857-10.901 6.23 0 10.842 4.231 10.842 10.9 0 6.656-4.613 10.916-10.842 10.916zm0-4.04c3.657 0 6.463-2.57 6.463-6.875 0-4.29-2.806-6.846-6.464-6.846s-6.464 2.556-6.464 6.846c0 4.304 2.806 6.875 6.464 6.875zm27.226-17.482h4.392v21.228h-5.098l-9.402-15.176v15.176h-4.392v-21.228h5.039l9.46 15.087v-15.087zm21.217 0h4.686l-7.845 21.228h-4.848l-7.8-21.228h4.671l5.568 16.086zm18.015 3.879h-7.875v4.818h6.978v3.835h-6.978v4.804h7.875v3.893h-12.311v-21.229h12.31v3.878zm13.578 17.35-5.524-9.344h-1.278v9.343h-4.407v-21.228h7.697c4.804 0 6.832 2.835 6.832 6.346 0 2.85-1.616 4.701-4.496 5.318l6.39 9.564h-5.215zm-6.802-17.57v5.068h2.6c2.35 0 3.305-1 3.305-2.527 0-1.513-.955-2.542-3.305-2.542h-2.6zm25.39-3.66v3.88h-5.04v17.349h-4.363v-17.35h-5.068v-3.878h14.47zm13.475 3.88h-7.875v4.818h6.978v3.835h-6.978v4.804h7.875v3.893h-12.311v-21.229h12.31v3.878zm13.578 17.35-5.524-9.344h-1.278v9.343h-4.407v-21.228h7.697c4.804 0 6.832 2.835 6.832 6.346 0 2.85-1.616 4.701-4.496 5.318l6.39 9.564h-5.215zm-6.802-17.57v5.068h2.6c2.35 0 3.305-1 3.305-2.527 0-1.513-.955-2.542-3.305-2.542h-2.6z" fill="#fff"/></svg>